<svg width="20" height="20" viewBox="0 0 20 20" fill="none" xmlns="http://www.w3.org/2000/svg">
<path d="M11.557 18.103C11.3988 18.3758 11.1717 18.6023 10.8984 18.7597C10.6251 18.9171 10.3153 19 10 19C9.68466 19 9.37485 18.9171 9.1016 18.7597C8.82834 18.6023 8.60123 18.3758 8.443 18.103M1 6.40096C1 4.42061 1.63 2.53027 2.8 1M19 6.40096C19 4.45328 18.3684 2.55814 17.2 1M15.4 6.40096C15.4 4.96853 14.8311 3.59478 13.8184 2.5819C12.8057 1.56903 11.4322 1 10 1C8.56783 1 7.19432 1.56903 6.18162 2.5819C5.16893 3.59478 4.6 4.96853 4.6 6.40096C4.6 12.7021 1.9 14.5024 1.9 14.5024H18.1C18.1 14.5024 15.4 12.7021 15.4 6.40096Z" stroke="white" stroke-width="2" stroke-linecap="round" stroke-linejoin="round"/>
</svg>
